<svg data-v-423bf9ae="" xmlns="http://www.w3.org/2000/svg" viewBox="0 0 508 107" class="iconLeft"><!----><!----><!----><g data-v-423bf9ae="" id="a90d14ee-14d7-4e05-8e77-aa6ce283e63b" fill="white" transform="matrix(4.213483213791417,0,0,4.213483213791417,101.07661858248807,5.286965125890241)"><path d="M2.10 14.31L2.10 7.59L1.96 7.45L1.96 7.45Q1.83 7.32 1.67 7.53L1.67 7.53L1.67 7.53Q1.32 7.97 1.22 8.05L1.22 8.05L1.22 8.05Q0.84 8.36 0.28 8.36L0.28 8.36L0.28 8.15L0.28 8.15Q0.28 7.95 1.12 6.61L1.12 6.61L1.12 6.61Q1.37 6.20 2.03 6.09L2.03 6.09L3.08 5.91L3.08 5.91Q4.03 5.53 5.04 4.93L5.04 4.93L5.24 4.93L5.24 4.93Q5.24 5.29 4.90 5.63L4.90 5.63L4.90 5.63Q5.94 5.59 6.72 5.63L6.72 5.63L6.72 5.63Q8.69 5.74 8.69 6.89L8.69 6.89L8.69 6.89Q8.69 7.59 7.42 8.99L7.42 8.99L7.42 9.13L7.42 9.13Q9.25 10.28 9.25 12.00L9.25 12.00L9.25 12.00Q9.25 13.47 7.88 14.62L7.88 14.62L7.88 14.62Q6.57 15.72 5.07 15.72L5.07 15.72L5.07 15.72Q4.70 15.72 4.00 15.57L4.00 15.57L4.00 15.57Q3.29 15.41 2.93 15.41L2.93 15.41L2.93 15.41Q2.73 15.41 2.30 15.66L2.30 15.66L2.30 15.66Q1.86 15.90 1.65 15.90L1.65 15.90L1.65 15.90Q1.65 15.74 1.68 15.71L1.68 15.71L1.82 15.43L1.82 15.43Q2.10 14.49 2.10 14.31L2.10 14.31ZM4.33 12.22L4.33 12.22L4.33 12.22Q4.33 14.17 5.81 14.17L5.81 14.17L5.81 14.17Q6.48 14.17 6.97 13.87L6.97 13.87L6.97 13.87Q7.56 13.52 7.56 12.91L7.56 12.91L7.56 12.91Q7.56 11.98 6.59 11.19L6.59 11.19L6.59 11.19Q5.63 10.39 4.69 10.39L4.69 10.39L4.62 10.39L4.62 10.39Q4.33 11.28 4.33 12.22ZM4.33 8.15L4.33 8.15L4.33 8.15Q4.33 9.42 4.69 9.42L4.69 9.42L4.69 9.42Q5.15 9.42 5.73 8.93L5.73 8.93L5.73 8.93Q6.31 8.43 6.31 7.97L6.31 7.97L6.31 7.97Q6.31 7.38 5.85 7.04L5.85 7.04L5.85 7.04Q5.45 6.75 4.83 6.75L4.83 6.75L4.83 6.75Q4.33 6.75 4.33 8.15ZM10.05 12.82L10.05 12.82L10.05 12.82Q10.05 11.07 11.39 9.75L11.39 9.75L11.39 9.75Q12.73 8.43 14.48 8.43L14.48 8.43L14.48 8.43Q15.13 8.43 15.41 8.68L15.41 8.68L15.41 8.68Q15.68 8.93 15.68 9.58L15.68 9.58L15.68 9.58Q15.68 10.50 14.63 11.28L14.63 11.28L14.63 11.28Q13.75 11.82 12.87 12.36L12.87 12.36L12.73 12.50L12.73 12.50Q12.73 12.53 12.71 12.57L12.71 12.57L12.71 12.57Q12.71 12.80 13.03 13.05L13.03 13.05L13.03 13.05Q13.30 13.26 13.57 13.34L13.57 13.34L13.64 13.34L13.64 13.34Q14.06 13.34 14.92 12.69L14.92 12.69L14.92 12.69Q15.79 12.04 15.97 12.04L15.97 12.04L15.97 12.04Q15.97 13.23 14.74 14.34L14.74 14.34L14.74 14.34Q13.51 15.46 12.31 15.46L12.31 15.46L12.31 15.46Q11.26 15.46 10.63 14.64L10.63 14.64L10.63 14.64Q10.05 13.90 10.05 12.82ZM12.59 10.12L12.59 10.12L12.59 10.12Q12.08 10.81 12.08 11.56L12.08 11.56L12.08 11.56Q12.36 11.56 12.76 11.14L12.76 11.14L12.76 11.14Q13.16 10.71 13.16 10.42L13.16 10.42L13.16 10.42Q13.16 10.11 12.80 10.11L12.80 10.11L12.70 10.11L12.70 10.11Q12.60 10.12 12.59 10.12ZM21.76 13.01L21.76 13.01L21.76 13.01Q21.76 12.14 20.76 11.52L20.76 11.52L20.76 11.52Q19.47 10.71 19.59 10.02L19.59 10.02L19.59 10.02Q19.64 9.70 20.05 9.35L20.05 9.35L20.05 9.35Q20.52 9.02 20.65 8.92L20.65 8.92L20.65 8.92Q20.94 8.67 20.99 8.44L20.99 8.44L20.99 8.44Q21.06 8.05 20.45 8.05L20.45 8.05L20.45 8.05Q19.46 8.05 18.31 8.82L18.31 8.82L18.31 8.82Q17.07 9.66 17.07 10.61L17.07 10.61L17.07 10.61Q17.07 11.28 17.88 11.83L17.88 11.83L17.88 11.83Q18.86 12.49 18.86 13.23L18.86 13.23L18.86 13.23Q18.86 14.08 17.82 14.66L17.82 14.66L17.82 14.66Q17.19 15.01 17.12 15.33L17.12 15.33L17.12 15.33Q17.04 15.75 17.93 15.75L17.93 15.75L17.93 15.75Q19.19 15.75 20.38 15.02L20.38 15.02L20.38 15.02Q21.76 14.20 21.76 13.01ZM22.64 9.46L22.64 9.46L22.64 9.14L22.64 9.14Q24.00 8.54 24.74 7.88L24.74 7.88L26.14 6.62L26.42 6.62L26.42 8.44L26.56 8.58L26.56 8.58Q26.96 8.60 27.06 8.60L27.06 8.60L27.06 8.60Q27.59 8.60 28.64 8.50L28.64 8.50L28.64 8.50Q29.69 8.41 30.23 8.41L30.23 8.41L30.23 8.41Q30.23 8.83 29.32 9.60L29.32 9.60L29.32 9.60Q28.52 10.28 28.10 10.40L28.10 10.40L28.10 10.40Q27.89 10.46 27.26 10.51L27.26 10.51L27.26 10.51Q26.63 10.57 26.42 10.54L26.42 10.54L26.28 10.68L26.28 10.68Q26.25 10.77 26.25 11.52L26.25 11.52L26.25 11.52Q26.25 11.65 26.23 11.91L26.23 11.91L26.23 11.91Q26.21 12.18 26.21 12.31L26.21 12.31L26.21 12.31Q26.21 13.40 26.70 13.40L26.70 13.40L26.70 13.40Q26.92 13.40 26.98 13.34L26.98 13.34L28.38 11.94L28.77 11.94L28.77 11.94Q28.77 13.13 27.94 14.25L27.94 14.25L27.94 14.25Q27.03 15.48 25.93 15.48L25.93 15.48L25.93 15.48Q25.37 15.48 25.11 15.38L25.11 15.38L25.11 15.38Q24.85 15.27 24.46 14.88L24.46 14.88L24.46 14.88Q24.35 14.77 24.09 14.38L24.09 14.38L24.09 14.38Q23.83 13.99 23.83 13.90L23.83 13.90L23.83 9.84L23.83 9.84Q23.83 9.79 23.69 9.68L23.69 9.68L23.69 9.68Q23.55 9.58 23.48 9.56L23.48 9.56L23.48 9.56Q23.03 9.46 22.64 9.46ZM37.70 11.41L37.67 8.57L37.67 8.57Q37.17 8.57 36.67 9.10L36.67 9.10L35.87 10.12L35.87 10.12Q35.46 10.64 35.15 10.64L35.15 10.64L35.15 10.64Q35.15 10.42 35.21 10.19L35.21 10.19L35.49 9.06L35.49 9.06Q35.64 8.41 36.05 7.95L36.05 7.95L36.05 7.95Q36.62 7.29 38.40 6.24L38.40 6.24L38.40 6.24Q40.28 5.14 40.98 5.14L40.98 5.14L40.98 5.14Q40.98 5.25 40.89 5.47L40.89 5.47L40.89 5.47Q40.81 5.68 40.81 5.78L40.81 5.78L40.81 5.85L40.81 5.85Q41.59 5.70 42.50 5.70L42.50 5.70L42.50 5.70Q43.50 5.70 44.21 6.08L44.21 6.08L44.21 6.08Q45.05 6.51 45.29 7.39L45.29 7.39L45.29 7.52L45.29 7.52Q45.30 7.67 45.30 7.81L45.30 7.81L45.30 8.23L45.30 8.23Q45.30 10.65 42.69 12.47L42.69 12.47L42.69 12.47Q41.41 13.36 40.18 13.55L40.18 13.55L40.18 15.79L40.18 15.79Q39.58 16.53 38.60 17.39L38.60 17.39L38.60 17.39Q37.35 18.48 36.72 18.48L36.72 18.48L36.72 18.48Q36.72 18.26 36.97 17.89L36.97 17.89L36.97 17.89Q37.27 17.46 37.31 17.33L37.31 17.33L37.31 17.33Q37.70 16.13 37.73 14.25L37.73 14.25L37.73 14.25Q37.73 14.25 37.70 11.41L37.70 11.41ZM40.39 6.97L40.25 7.39L40.25 11.31L40.25 11.31Q40.25 11.52 40.67 11.65L40.67 11.65L40.67 11.65Q40.99 11.75 41.29 11.75L41.29 11.75L41.29 11.75Q43.06 11.75 43.06 9.42L43.06 9.42L43.06 9.42Q43.06 6.96 40.78 6.96L40.78 6.96L40.78 6.96Q40.68 6.96 40.39 6.97L40.39 6.97ZM45.92 12.99L45.92 12.99L45.92 12.99Q45.92 11.55 46.67 10.39L46.67 10.39L46.67 10.39Q47.42 9.24 48.73 8.65L48.73 8.65L48.73 8.65Q49.29 8.40 50.26 8.36L50.26 8.36L50.26 8.36Q51.44 8.30 51.81 8.23L51.81 8.23L52.65 7.95L52.65 7.95Q52.70 7.95 52.74 7.94L52.74 7.94L52.82 7.94L52.82 7.94Q52.82 8.20 52.53 8.53L52.53 8.53L52.53 8.53Q52.15 8.93 52.09 9.07L52.09 9.07L52.09 9.07Q51.84 9.60 51.81 9.88L51.81 9.88L51.81 9.88Q51.80 10.00 51.80 10.70L51.80 10.70L51.80 11.55L51.80 11.55Q51.80 12.31 52.16 12.31L52.16 12.31L52.16 12.31Q52.19 12.31 52.23 12.29L52.23 12.29L52.93 11.73L52.93 11.73Q52.98 11.72 53.17 11.69L53.17 11.69L53.17 11.69Q53.17 12.56 52.57 13.87L52.57 13.87L52.57 13.87Q51.87 15.40 51.11 15.40L51.11 15.40L51.11 15.40Q50.92 15.40 50.83 15.37L50.83 15.37L50.83 15.37Q49.80 14.66 49.29 13.13L49.29 13.13L49.29 13.13Q48.92 13.87 48.50 14.57L48.50 14.57L48.50 14.57Q47.94 15.53 47.19 15.53L47.19 15.53L47.19 15.53Q45.92 15.53 45.92 12.99ZM47.88 11.89L47.88 11.89L47.88 11.89Q47.88 12.74 48.37 12.74L48.37 12.74L48.37 12.74Q48.79 12.74 49.28 11.62L49.28 11.62L49.28 11.62Q49.73 10.60 49.73 10.02L49.73 10.02L49.73 10.02Q48.59 10.02 48.24 10.39L48.24 10.39L48.24 10.39Q47.88 10.75 47.88 11.89ZM55.06 13.05L55.08 12.77L55.08 12.77Q55.08 12.74 55.06 12.49L55.06 12.49L55.06 12.49Q54.88 11.51 54.64 10.53L54.64 10.53L54.64 10.53Q54.61 10.44 54.33 10.35L54.33 10.35L54.33 10.35Q54.05 10.26 54.05 10.11L54.05 10.11L54.05 10.11Q54.05 9.83 55.33 9.20L55.33 9.20L55.33 9.20Q56.56 8.57 56.95 8.57L56.95 8.57L57.02 8.57L57.02 8.57Q57.22 8.64 57.30 8.71L57.30 8.71L57.30 9.97L57.44 9.97L57.44 9.97Q57.97 9.52 58.73 9.10L58.73 9.10L58.73 9.10Q59.68 8.57 60.17 8.57L60.17 8.57L60.24 8.57L60.24 8.57Q60.40 8.64 60.40 8.78L60.40 8.78L60.40 8.78Q60.40 9.04 60.11 9.63L60.11 9.63L60.11 9.63Q59.82 10.22 59.82 10.53L59.82 10.53L59.82 10.53Q59.82 11.37 59.85 11.55L59.85 11.55L59.85 11.55Q59.98 12.36 60.45 12.36L60.45 12.36L60.45 12.36Q60.86 12.36 60.91 11.84L60.91 11.84L60.91 11.84Q60.91 11.84 61.00 10.98L61.00 10.98L61.00 10.98Q61.12 10.37 61.43 10.37L61.43 10.37L61.47 10.37L61.47 10.37Q61.49 10.39 61.50 10.39L61.50 10.39L61.50 10.39Q61.66 10.96 61.66 11.87L61.66 11.87L61.66 11.87Q61.66 12.98 61.00 14.07L61.00 14.07L61.00 14.07Q60.24 15.32 59.23 15.32L59.23 15.32L59.23 15.32Q58.24 15.32 57.85 13.83L57.85 13.83L57.85 13.83Q57.71 13.30 57.58 11.65L57.58 11.65L57.58 11.65Q57.33 11.75 57.23 12.98L57.23 12.98L57.23 12.98Q57.22 13.19 57.16 14.45L57.16 14.45L57.16 14.45Q57.04 15.01 55.87 15.75L55.87 15.75L55.87 15.75Q54.77 16.46 54.15 16.46L54.15 16.46L54.15 16.46Q54.15 16.20 54.38 15.82L54.38 15.82L54.38 15.82Q54.61 15.44 54.64 15.29L54.64 15.29L54.92 13.47L55.06 13.05ZM62.34 12.84L62.34 12.84L62.34 12.84Q62.34 11.16 63.59 9.58L63.59 9.58L63.59 9.58Q64.92 7.90 66.57 7.90L66.57 7.90L66.57 7.90Q67.14 7.90 67.55 8.22L67.55 8.22L67.55 8.22Q67.96 8.54 67.96 9.10L67.96 9.10L67.96 9.17L67.96 9.17Q67.68 10.02 66.84 11.13L66.84 11.13L66.84 11.13Q66.09 12.11 66.00 12.11L66.00 12.11L65.69 12.11L65.69 12.11Q65.69 11.87 65.84 11.41L65.84 11.41L65.84 11.41Q66.00 10.95 66.00 10.71L66.00 10.71L66.00 10.71Q66.00 10.30 65.74 10.01L65.74 10.01L65.74 10.01Q65.48 9.72 65.09 9.72L65.09 9.72L65.09 9.72Q64.50 9.72 64.29 10.26L64.29 10.26L64.29 10.26Q64.16 10.60 64.16 11.31L64.16 11.31L64.16 11.31Q64.16 12.17 64.61 12.66L64.61 12.66L64.61 12.66Q64.97 13.05 65.86 13.37L65.86 13.37L66.07 13.38L66.07 13.38Q66.09 13.38 66.28 13.37L66.28 13.37L67.26 12.95L67.26 12.95Q67.31 12.94 67.34 12.94L67.34 12.94L67.34 12.94Q67.55 12.94 67.55 13.37L67.55 13.37L67.55 13.37Q67.55 14.06 66.44 14.87L66.44 14.87L66.44 14.87Q65.39 15.62 64.67 15.62L64.67 15.62L64.67 15.62Q63.91 15.62 63.76 15.47L63.76 15.47L62.64 14.35L62.64 14.35Q62.34 14.06 62.34 12.84ZM68.78 12.99L68.78 12.99L68.78 12.99Q68.78 11.55 69.53 10.39L69.53 10.39L69.53 10.39Q70.28 9.24 71.60 8.65L71.60 8.65L71.60 8.65Q72.16 8.40 73.12 8.36L73.12 8.36L73.12 8.36Q74.30 8.30 74.68 8.23L74.68 8.23L75.52 7.95L75.52 7.95Q75.56 7.95 75.60 7.94L75.60 7.94L75.68 7.94L75.68 7.94Q75.68 8.20 75.39 8.53L75.39 8.53L75.39 8.53Q75.01 8.93 74.96 9.07L74.96 9.07L74.96 9.07Q74.70 9.60 74.68 9.88L74.68 9.88L74.68 9.88Q74.66 10.00 74.66 10.70L74.66 10.70L74.66 11.55L74.66 11.55Q74.66 12.31 75.03 12.31L75.03 12.31L75.03 12.31Q75.05 12.31 75.10 12.29L75.10 12.29L75.80 11.73L75.80 11.73Q75.84 11.72 76.03 11.69L76.03 11.69L76.03 11.69Q76.03 12.56 75.43 13.87L75.43 13.87L75.43 13.87Q74.73 15.40 73.98 15.40L73.98 15.40L73.98 15.40Q73.78 15.40 73.70 15.37L73.70 15.37L73.70 15.37Q72.66 14.66 72.16 13.13L72.16 13.13L72.16 13.13Q71.78 13.87 71.36 14.57L71.36 14.57L71.36 14.57Q70.80 15.53 70.06 15.53L70.06 15.53L70.06 15.53Q68.78 15.53 68.78 12.99ZM70.74 11.89L70.74 11.89L70.74 11.89Q70.74 12.74 71.23 12.74L71.23 12.74L71.23 12.74Q71.65 12.74 72.14 11.62L72.14 11.62L72.14 11.62Q72.59 10.60 72.59 10.02L72.59 10.02L72.59 10.02Q71.46 10.02 71.10 10.39L71.10 10.39L71.10 10.39Q70.74 10.75 70.74 11.89ZM77.71 9.74L77.71 9.74L77.71 9.74Q77.71 9.31 77.42 6.94L77.42 6.94L77.42 6.94Q77.41 6.78 77.27 6.40L77.27 6.40L77.27 6.40Q77.13 6.02 77.13 5.81L77.13 5.81L77.13 5.81Q77.13 5.50 78.50 4.86L78.50 4.86L78.50 4.86Q79.80 4.24 80.25 4.24L80.25 4.24L80.25 4.24Q80.25 4.45 80.22 4.56L80.22 4.56L80.22 4.56Q79.79 6.33 79.79 7.64L79.79 7.64L79.79 7.76L79.79 7.76Q79.80 7.88 79.80 7.99L79.80 7.99L79.80 8.34L79.80 8.34Q79.84 8.44 79.94 8.48L79.94 8.48L79.94 8.48Q79.97 8.48 80.01 8.50L80.01 8.50L80.88 7.85L80.88 7.85Q81.75 7.21 82.35 7.21L82.35 7.21L82.35 7.21Q83.45 7.21 83.45 7.90L83.45 7.90L83.45 7.90Q83.45 8.43 83.05 8.95L83.05 8.95L83.05 8.95Q82.81 9.25 82.29 9.70L82.29 9.70L82.29 9.70Q81.89 10.05 81.89 10.15L81.89 10.15L81.89 10.15Q81.89 10.49 82.14 11.06L82.14 11.06L82.14 11.06Q82.43 11.72 82.75 11.72L82.75 11.72L82.75 11.72Q82.95 11.72 83.37 11.38L83.37 11.38L83.37 11.38Q83.79 11.05 84.04 11.05L84.04 11.05L84.04 11.05Q84.04 12.07 83.50 13.20L83.50 13.20L83.50 13.20Q82.87 14.52 81.97 14.52L81.97 14.52L81.97 14.52Q80.81 14.52 79.80 12.12L79.80 12.12L79.80 13.80L79.80 13.80Q79.69 14 79.52 14.22L79.52 14.22L79.52 14.22Q79.48 14.32 79.38 14.36L79.38 14.36L79.38 14.36Q77.83 15.55 77.14 16.04L77.14 16.04L76.83 16.04L76.83 16.04Q76.83 15.75 77.11 14.99L77.11 14.99L77.11 14.99Q77.38 14.24 77.42 13.94L77.42 13.94L77.42 13.94Q77.71 12.03 77.71 9.74ZM80.32 9.32L79.94 9.60L79.94 9.60Q79.84 9.88 79.80 10.16L79.80 10.16L79.80 10.26L79.80 10.26Q79.79 10.35 79.79 10.36L79.79 10.36L79.79 10.36Q80.09 10.36 80.61 9.99L80.61 9.99L80.61 9.99Q81.13 9.62 81.06 9.32L81.06 9.32L81.06 9.32Q81.05 9.25 80.94 9.15L80.94 9.15L80.94 9.15Q80.84 9.04 80.78 9.04L80.78 9.04L80.78 9.04Q80.68 9.04 80.32 9.32L80.32 9.32ZM84.64 12.82L84.64 12.82L84.64 12.82Q84.64 11.07 85.98 9.75L85.98 9.75L85.98 9.75Q87.32 8.43 89.07 8.43L89.07 8.43L89.07 8.43Q89.73 8.43 90.00 8.68L90.00 8.68L90.00 8.68Q90.27 8.93 90.27 9.58L90.27 9.58L90.27 9.58Q90.27 10.50 89.22 11.28L89.22 11.28L89.22 11.28Q88.34 11.82 87.46 12.36L87.46 12.36L87.32 12.50L87.32 12.50Q87.32 12.53 87.30 12.57L87.30 12.57L87.30 12.57Q87.30 12.80 87.63 13.05L87.63 13.05L87.63 13.05Q87.89 13.26 88.16 13.34L88.16 13.34L88.23 13.34L88.23 13.34Q88.65 13.34 89.52 12.69L89.52 12.69L89.52 12.69Q90.38 12.04 90.57 12.04L90.57 12.04L90.57 12.04Q90.57 13.23 89.33 14.34L89.33 14.34L89.33 14.34Q88.10 15.46 86.90 15.46L86.90 15.46L86.90 15.46Q85.85 15.46 85.22 14.64L85.22 14.64L85.22 14.64Q84.64 13.90 84.64 12.82ZM87.18 10.12L87.18 10.12L87.18 10.12Q86.67 10.81 86.67 11.56L86.67 11.56L86.67 11.56Q86.95 11.56 87.35 11.14L87.35 11.14L87.35 11.14Q87.75 10.71 87.75 10.42L87.75 10.42L87.75 10.42Q87.75 10.11 87.39 10.11L87.39 10.11L87.29 10.11L87.29 10.11Q87.19 10.12 87.18 10.12ZM96.35 13.01L96.35 13.01L96.35 13.01Q96.35 12.14 95.35 11.52L95.35 11.52L95.35 11.52Q94.07 10.71 94.18 10.02L94.18 10.02L94.18 10.02Q94.23 9.70 94.64 9.35L94.64 9.35L94.64 9.35Q95.12 9.02 95.24 8.92L95.24 8.92L95.24 8.92Q95.54 8.67 95.58 8.44L95.58 8.44L95.58 8.44Q95.65 8.05 95.05 8.05L95.05 8.05L95.05 8.05Q94.05 8.05 92.90 8.82L92.90 8.82L92.90 8.82Q91.66 9.66 91.66 10.61L91.66 10.61L91.66 10.61Q91.66 11.28 92.47 11.83L92.47 11.83L92.47 11.83Q93.45 12.49 93.45 13.23L93.45 13.23L93.45 13.23Q93.45 14.08 92.41 14.66L92.41 14.66L92.41 14.66Q91.78 15.01 91.71 15.33L91.71 15.33L91.71 15.33Q91.63 15.75 92.53 15.75L92.53 15.75L92.53 15.75Q93.79 15.75 94.98 15.02L94.98 15.02L94.98 15.02Q96.35 14.20 96.35 13.01Z"></path></g><!----><g data-v-423bf9ae="" id="6665964a-1e35-4e42-9b70-60fd03433bda" transform="matrix(1.0868111504448785,0,0,1.0868111504448785,-13.255261890115804,-0.23894260335429607)" stroke="none" fill="white"><g clip-rule="evenodd"><path d="M12.983 10.59l17.018 88.223-5.872-59.049 29.021-1.892-.054-9.883L64.549 1 53.622 18.977z"></path><path d="M59.389 54.548l5.16-53.541-8.74 39.716-19.612 1.045 1.57 20.462-7.766 36.583 12.057-39.899z"></path><path d="M62.8 67.182l.549-10.453-15.979 3.755-.032 11.797-17.337 26.532 21.68-27.616zM65.711 62.394l14.841-4.731 1.509-12.532-15.899 2.095zM72.07 44.502l10.988-1.417 1.581-10.278-8.079-.373L64.549 1l8.43 30.967z"></path><path d="M87.413 31.294l1.256-9.506-9.544-2.694L64.549 1l14.483 22.437-.422 7z"></path></g></g><!----></svg>